<svg width="139" height="134" viewBox="0 0 139 134" fill="none" xmlns="http://www.w3.org/2000/svg">
<path d="M0 50C0 22.3858 22.3858 0 50 0H89C116.614 0 139 22.3858 139 50V84C139 111.614 116.614 134 89 134H50C22.3858 134 0 111.614 0 84V50Z" fill="#026992"/>
<rect x="17" y="17" width="13" height="101" fill="#D9D9D9"/>
<rect x="17" y="17" width="13" height="101" fill="#FFFCFC"/>
<rect x="58" y="40" width="11" height="56" fill="#FFFCFC"/>
<rect x="83" y="17" width="13" height="51" fill="#FFFCFC"/>
<rect x="110" y="68" width="13" height="50" fill="#FFFCFC"/>
<rect x="110" y="17" width="13" height="23" fill="#FFFCFC"/>
<rect x="43" y="17" width="13" height="23" fill="#FFFCFC"/>
<rect x="43" y="96" width="13" height="22" fill="#FFFCFC"/>
<rect x="83" y="96" width="13" height="22" fill="#FFFCFC"/>
</svg>
